<svg xmlns="http://www.w3.org/2000/svg" x="0px" y="0px"
width="24" height="24"
viewBox="0 0 172 172"
style=" fill:#000000;"><g fill="none" fill-rule="nonzero" stroke="none" stroke-width="1" stroke-linecap="butt" stroke-linejoin="miter" stroke-miterlimit="10" stroke-dasharray="" stroke-dashoffset="0" font-family="none" font-weight="none" font-size="none" text-anchor="none" style="mix-blend-mode: normal"><path d="M0,172v-172h172v172z" fill="none"></path><g fill="#db2777"><path d="M14.33333,86c0,39.5815 32.08517,71.66667 71.66667,71.66667c39.5815,0 71.66667,-32.08517 71.66667,-71.66667c0,-39.5815 -32.08517,-71.66667 -71.66667,-71.66667c-39.5815,0 -71.66667,32.08517 -71.66667,71.66667zM121.83333,64.5v18.05283c0,2.17867 -0.989,4.2355 -2.6875,5.59717l-28.66667,22.93333c-2.61583,2.09267 -6.33533,2.09267 -8.95117,0l-28.66667,-22.93333c-1.70567,-1.36167 -2.69467,-3.4185 -2.69467,-5.59717v-18.05283l35.83333,28.66667z"></path></g></g></svg>